<?xml version="1.0" encoding="UTF-8" standalone="no"?>
<!DOCTYPE svg PUBLIC "-//W3C//DTD SVG 1.1//EN"
 "http://www.w3.org/Graphics/SVG/1.1/DTD/svg11.dtd">
<!-- Generated by graphviz version 2.43.0 (0)
 -->
<!-- Title: erd Pages: 1 -->
<svg width="1439pt" height="1120pt"
 viewBox="0.00 0.00 1438.57 1120.06" xmlns="http://www.w3.org/2000/svg" xmlns:xlink="http://www.w3.org/1999/xlink">
<g id="graph0" class="graph" transform="scale(1 1) rotate(0) translate(4 1116.06)">
<title>erd</title>
<polygon fill="white" stroke="transparent" points="-4,4 -4,-1116.06 1434.57,-1116.06 1434.57,4 -4,4"/>
<!-- document_statements -->
<g id="node1" class="node">
<title>document_statements</title>
<polygon fill="none" stroke="black" points="668.77,-711.41 668.77,-732.41 871.77,-732.41 871.77,-711.41 668.77,-711.41"/>
<text text-anchor="start" x="691.27" y="-718.21" font-family="Times,serif" font-size="14.00">document_statements</text>
<polygon fill="none" stroke="black" points="668.77,-690.41 668.77,-711.41 768.77,-711.41 768.77,-690.41 668.77,-690.41"/>
<text text-anchor="start" x="671.77" y="-697.21" font-family="Times,serif" font-size="14.00">document_id</text>
<polyline fill="none" stroke="black" points="768.77,-690.41 844.77,-690.41 "/>
<polyline fill="none" stroke="black" points="844.77,-711.41 768.77,-711.41 "/>
<text text-anchor="start" x="771.77" y="-697.21" font-family="Times,serif" font-size="14.00">INTEGER</text>
<polyline fill="none" stroke="black" points="844.77,-690.41 871.77,-690.41 871.77,-711.41 844.77,-711.41 "/>
<text text-anchor="start" x="847.77" y="-697.21" font-family="Times,serif" font-size="14.00">FK</text>
<polygon fill="none" stroke="black" points="668.77,-669.41 668.77,-690.41 768.77,-690.41 768.77,-669.41 668.77,-669.41"/>
<text text-anchor="start" x="671.77" y="-676.21" font-family="Times,serif" font-size="14.00">statement_id</text>
<polyline fill="none" stroke="black" points="768.77,-669.41 844.77,-669.41 "/>
<polyline fill="none" stroke="black" points="844.77,-690.41 768.77,-690.41 "/>
<text text-anchor="start" x="771.77" y="-676.21" font-family="Times,serif" font-size="14.00">INTEGER</text>
<polyline fill="none" stroke="black" points="844.77,-669.41 871.77,-669.41 871.77,-690.41 844.77,-690.41 "/>
<text text-anchor="start" x="847.77" y="-676.21" font-family="Times,serif" font-size="14.00">FK</text>
<polygon fill="none" stroke="black" points="668.77,-648.41 668.77,-669.41 768.77,-669.41 768.77,-648.41 668.77,-648.41"/>
<text text-anchor="start" x="671.77" y="-655.21" font-family="Times,serif" font-size="14.00">start_line</text>
<polyline fill="none" stroke="black" points="768.77,-648.41 871.77,-648.41 871.77,-669.41 768.77,-669.41 "/>
<text text-anchor="start" x="771.77" y="-655.21" font-family="Times,serif" font-size="14.00">INTEGER</text>
<polygon fill="none" stroke="black" points="668.77,-627.41 668.77,-648.41 768.77,-648.41 768.77,-627.41 668.77,-627.41"/>
<text text-anchor="start" x="671.77" y="-634.21" font-family="Times,serif" font-size="14.00">start_offset</text>
<polyline fill="none" stroke="black" points="768.77,-627.41 871.77,-627.41 871.77,-648.41 768.77,-648.41 "/>
<text text-anchor="start" x="771.77" y="-634.21" font-family="Times,serif" font-size="14.00">INTEGER</text>
<polygon fill="none" stroke="black" points="668.77,-606.41 668.77,-627.41 768.77,-627.41 768.77,-606.41 668.77,-606.41"/>
<text text-anchor="start" x="671.77" y="-613.21" font-family="Times,serif" font-size="14.00">end_line</text>
<polyline fill="none" stroke="black" points="768.77,-606.41 871.77,-606.41 871.77,-627.41 768.77,-627.41 "/>
<text text-anchor="start" x="771.77" y="-613.21" font-family="Times,serif" font-size="14.00">INTEGER</text>
<polygon fill="none" stroke="black" points="668.77,-585.41 668.77,-606.41 768.77,-606.41 768.77,-585.41 668.77,-585.41"/>
<text text-anchor="start" x="671.77" y="-592.21" font-family="Times,serif" font-size="14.00">end_offset</text>
<polyline fill="none" stroke="black" points="768.77,-585.41 871.77,-585.41 871.77,-606.41 768.77,-606.41 "/>
<text text-anchor="start" x="771.77" y="-592.21" font-family="Times,serif" font-size="14.00">INTEGER</text>
<polygon fill="none" stroke="black" points="668.77,-564.41 668.77,-585.41 768.77,-585.41 768.77,-564.41 668.77,-564.41"/>
<text text-anchor="start" x="671.77" y="-571.21" font-family="Times,serif" font-size="14.00">locator</text>
<polyline fill="none" stroke="black" points="768.77,-564.41 871.77,-564.41 871.77,-585.41 768.77,-585.41 "/>
<text text-anchor="start" x="771.77" y="-571.21" font-family="Times,serif" font-size="14.00">TEXT</text>
</g>
<!-- statements -->
<g id="node2" class="node">
<title>statements</title>
<polygon fill="none" stroke="black" points="904.15,-524.19 904.15,-545.19 1015.15,-545.19 1015.15,-524.19 904.15,-524.19"/>
<text text-anchor="start" x="919.15" y="-530.99" font-family="Times,serif" font-size="14.00">statements</text>
<polygon fill="none" stroke="black" points="904.15,-503.19 904.15,-524.19 939.15,-524.19 939.15,-503.19 904.15,-503.19"/>
<text text-anchor="start" x="907.15" y="-509.99" font-family="Times,serif" font-size="14.00">id</text>
<polyline fill="none" stroke="black" points="939.15,-503.19 1015.15,-503.19 1015.15,-524.19 939.15,-524.19 "/>
<text text-anchor="start" x="942.15" y="-509.99" font-family="Times,serif" font-size="14.00">INTEGER</text>
<polygon fill="none" stroke="black" points="904.15,-482.19 904.15,-503.19 939.15,-503.19 939.15,-482.19 904.15,-482.19"/>
<text text-anchor="start" x="907.15" y="-488.99" font-family="Times,serif" font-size="14.00">text</text>
<polyline fill="none" stroke="black" points="939.15,-482.19 1015.15,-482.19 1015.15,-503.19 939.15,-503.19 "/>
<text text-anchor="start" x="942.15" y="-488.99" font-family="Times,serif" font-size="14.00">TEXT</text>
</g>
<!-- document_statements&#45;&gt;statements -->
<g id="edge1" class="edge">
<title>document_statements&#45;&gt;statements</title>
<path fill="none" stroke="black" d="M879.39,-570.72C886.52,-565.67 893.53,-560.7 900.27,-555.92"/>
<polygon fill="black" stroke="black" points="902.5,-558.63 908.63,-550 898.45,-552.92 902.5,-558.63"/>
<text text-anchor="middle" x="847.2" y="-549.02" font-family="Times,serif" font-size="14.00">statement_id</text>
</g>
<!-- documents -->
<g id="node3" class="node">
<title>documents</title>
<polygon fill="none" stroke="black" points="550.83,-781.67 550.83,-802.67 646.83,-802.67 646.83,-781.67 550.83,-781.67"/>
<text text-anchor="start" x="559.33" y="-788.47" font-family="Times,serif" font-size="14.00">documents</text>
<polygon fill="none" stroke="black" points="550.83,-760.67 550.83,-781.67 570.83,-781.67 570.83,-760.67 550.83,-760.67"/>
<text text-anchor="start" x="553.83" y="-767.47" font-family="Times,serif" font-size="14.00">id</text>
<polyline fill="none" stroke="black" points="570.83,-760.67 646.83,-760.67 646.83,-781.67 570.83,-781.67 "/>
<text text-anchor="start" x="573.83" y="-767.47" font-family="Times,serif" font-size="14.00">INTEGER</text>
</g>
<!-- document_statements&#45;&gt;documents -->
<g id="edge2" class="edge">
<title>document_statements&#45;&gt;documents</title>
<path fill="none" stroke="black" d="M660.06,-733.93C652.74,-739.64 645.69,-745.14 639.13,-750.25"/>
<polygon fill="black" stroke="black" points="636.84,-747.6 631.11,-756.5 641.15,-753.12 636.84,-747.6"/>
<text text-anchor="middle" x="600.24" y="-733.9" font-family="Times,serif" font-size="14.00">document_id</text>
</g>
<!-- document_urls -->
<g id="node4" class="node">
<title>document_urls</title>
<polygon fill="none" stroke="black" points="318.59,-901.12 318.59,-922.12 518.59,-922.12 518.59,-901.12 318.59,-901.12"/>
<text text-anchor="start" x="365.59" y="-907.92" font-family="Times,serif" font-size="14.00">document_urls</text>
<polygon fill="none" stroke="black" points="318.59,-880.12 318.59,-901.12 415.59,-901.12 415.59,-880.12 318.59,-880.12"/>
<text text-anchor="start" x="321.59" y="-886.92" font-family="Times,serif" font-size="14.00">document_id</text>
<polyline fill="none" stroke="black" points="415.59,-880.12 491.59,-880.12 "/>
<polyline fill="none" stroke="black" points="491.59,-901.12 415.59,-901.12 "/>
<text text-anchor="start" x="418.59" y="-886.92" font-family="Times,serif" font-size="14.00">INTEGER</text>
<polyline fill="none" stroke="black" points="491.59,-880.12 518.59,-880.12 518.59,-901.12 491.59,-901.12 "/>
<text text-anchor="start" x="494.59" y="-886.92" font-family="Times,serif" font-size="14.00">FK</text>
<polygon fill="none" stroke="black" points="318.59,-859.12 318.59,-880.12 415.59,-880.12 415.59,-859.12 318.59,-859.12"/>
<text text-anchor="start" x="321.59" y="-865.92" font-family="Times,serif" font-size="14.00">url_id</text>
<polyline fill="none" stroke="black" points="415.59,-859.12 491.59,-859.12 "/>
<polyline fill="none" stroke="black" points="491.59,-880.12 415.59,-880.12 "/>
<text text-anchor="start" x="418.59" y="-865.92" font-family="Times,serif" font-size="14.00">INTEGER</text>
<polyline fill="none" stroke="black" points="491.59,-859.12 518.59,-859.12 518.59,-880.12 491.59,-880.12 "/>
<text text-anchor="start" x="494.59" y="-865.92" font-family="Times,serif" font-size="14.00">FK</text>
</g>
<!-- document_urls&#45;&gt;documents -->
<g id="edge4" class="edge">
<title>document_urls&#45;&gt;documents</title>
<path fill="none" stroke="black" d="M477.11,-855.58C500.25,-841.53 526.57,-825.55 548.8,-812.04"/>
<polygon fill="black" stroke="black" points="550.69,-814.99 557.42,-806.81 547.06,-809.01 550.69,-814.99"/>
<text text-anchor="middle" x="471.81" y="-834.97" font-family="Times,serif" font-size="14.00">document_id</text>
</g>
<!-- urls -->
<g id="node5" class="node">
<title>urls</title>
<polygon fill="none" stroke="black" points="166.97,-1024.71 166.97,-1045.71 318.97,-1045.71 318.97,-1024.71 166.97,-1024.71"/>
<text text-anchor="start" x="228.97" y="-1031.51" font-family="Times,serif" font-size="14.00">urls</text>
<polygon fill="none" stroke="black" points="166.97,-1003.71 166.97,-1024.71 242.97,-1024.71 242.97,-1003.71 166.97,-1003.71"/>
<text text-anchor="start" x="169.97" y="-1010.51" font-family="Times,serif" font-size="14.00">id</text>
<polyline fill="none" stroke="black" points="242.97,-1003.71 318.97,-1003.71 318.97,-1024.71 242.97,-1024.71 "/>
<text text-anchor="start" x="245.97" y="-1010.51" font-family="Times,serif" font-size="14.00">INTEGER</text>
<polygon fill="none" stroke="black" points="166.97,-982.71 166.97,-1003.71 242.97,-1003.71 242.97,-982.71 166.97,-982.71"/>
<text text-anchor="start" x="169.97" y="-989.51" font-family="Times,serif" font-size="14.00">url</text>
<polyline fill="none" stroke="black" points="242.97,-982.71 318.97,-982.71 318.97,-1003.71 242.97,-1003.71 "/>
<text text-anchor="start" x="245.97" y="-989.51" font-family="Times,serif" font-size="14.00">TEXT</text>
<polygon fill="none" stroke="black" points="166.97,-961.71 166.97,-982.71 242.97,-982.71 242.97,-961.71 166.97,-961.71"/>
<text text-anchor="start" x="169.97" y="-968.51" font-family="Times,serif" font-size="14.00">license_id</text>
<polyline fill="none" stroke="black" points="242.97,-961.71 289.97,-961.71 "/>
<polyline fill="none" stroke="black" points="289.97,-982.71 242.97,-982.71 "/>
<text text-anchor="start" x="245.97" y="-968.51" font-family="Times,serif" font-size="14.00">TEXT</text>
<polyline fill="none" stroke="black" points="289.97,-961.71 318.97,-961.71 318.97,-982.71 289.97,-982.71 "/>
<text text-anchor="start" x="292.97" y="-968.51" font-family="Times,serif" font-size="14.00">FK</text>
</g>
<!-- document_urls&#45;&gt;urls -->
<g id="edge3" class="edge">
<title>document_urls&#45;&gt;urls</title>
<path fill="none" stroke="black" d="M363.03,-926.74C350.5,-934.78 336.95,-943.46 323.62,-952.01"/>
<polygon fill="black" stroke="black" points="321.44,-949.25 314.91,-957.59 325.22,-955.14 321.44,-949.25"/>
<text text-anchor="middle" x="318.45" y="-945.98" font-family="Times,serif" font-size="14.00">url_id</text>
</g>
<!-- licenses -->
<g id="node9" class="node">
<title>licenses</title>
<polygon fill="none" stroke="black" points="8,-1086.56 8,-1107.56 88,-1107.56 88,-1086.56 8,-1086.56"/>
<text text-anchor="start" x="19" y="-1093.36" font-family="Times,serif" font-size="14.00">licenses</text>
<polygon fill="none" stroke="black" points="8,-1065.56 8,-1086.56 43,-1086.56 43,-1065.56 8,-1065.56"/>
<text text-anchor="start" x="11" y="-1072.36" font-family="Times,serif" font-size="14.00">id</text>
<polyline fill="none" stroke="black" points="43,-1065.56 88,-1065.56 88,-1086.56 43,-1086.56 "/>
<text text-anchor="start" x="46" y="-1072.36" font-family="Times,serif" font-size="14.00">TEXT</text>
<polygon fill="none" stroke="black" points="8,-1044.56 8,-1065.56 43,-1065.56 43,-1044.56 8,-1044.56"/>
<text text-anchor="start" x="11" y="-1051.36" font-family="Times,serif" font-size="14.00">text</text>
<polyline fill="none" stroke="black" points="43,-1044.56 88,-1044.56 88,-1065.56 43,-1065.56 "/>
<text text-anchor="start" x="46" y="-1051.36" font-family="Times,serif" font-size="14.00">TEXT</text>
</g>
<!-- urls&#45;&gt;licenses -->
<g id="edge15" class="edge">
<title>urls&#45;&gt;licenses</title>
<path fill="none" stroke="black" d="M158.87,-1035.14C140.95,-1041.83 122.42,-1048.76 105.75,-1054.99"/>
<polygon fill="black" stroke="black" points="104.31,-1051.79 96.17,-1058.57 106.76,-1058.34 104.31,-1051.79"/>
<text text-anchor="middle" x="110.15" y="-1035.6" font-family="Times,serif" font-size="14.00">license_id</text>
</g>
<!-- language_versions -->
<g id="node6" class="node">
<title>language_versions</title>
<polygon fill="none" stroke="black" points="1122.26,-45.5 1122.26,-66.5 1283.26,-66.5 1283.26,-45.5 1122.26,-45.5"/>
<text text-anchor="start" x="1136.26" y="-52.3" font-family="Times,serif" font-size="14.00">language_versions</text>
<polygon fill="none" stroke="black" points="1122.26,-24.5 1122.26,-45.5 1214.26,-45.5 1214.26,-24.5 1122.26,-24.5"/>
<text text-anchor="start" x="1125.26" y="-31.3" font-family="Times,serif" font-size="14.00">language_id</text>
<polyline fill="none" stroke="black" points="1214.26,-24.5 1256.26,-24.5 "/>
<polyline fill="none" stroke="black" points="1256.26,-45.5 1214.26,-45.5 "/>
<text text-anchor="start" x="1217.26" y="-31.3" font-family="Times,serif" font-size="14.00">INT4</text>
<polyline fill="none" stroke="black" points="1256.26,-24.5 1283.26,-24.5 1283.26,-45.5 1256.26,-45.5 "/>
<text text-anchor="start" x="1259.26" y="-31.3" font-family="Times,serif" font-size="14.00">FK</text>
<polygon fill="none" stroke="black" points="1122.26,-3.5 1122.26,-24.5 1214.26,-24.5 1214.26,-3.5 1122.26,-3.5"/>
<text text-anchor="start" x="1125.26" y="-10.3" font-family="Times,serif" font-size="14.00">version_id</text>
<polyline fill="none" stroke="black" points="1214.26,-3.5 1256.26,-3.5 "/>
<polyline fill="none" stroke="black" points="1256.26,-24.5 1214.26,-24.5 "/>
<text text-anchor="start" x="1217.26" y="-10.3" font-family="Times,serif" font-size="14.00">INT4</text>
<polyline fill="none" stroke="black" points="1256.26,-3.5 1283.26,-3.5 1283.26,-24.5 1256.26,-24.5 "/>
<text text-anchor="start" x="1259.26" y="-10.3" font-family="Times,serif" font-size="14.00">FK</text>
</g>
<!-- versions -->
<g id="node7" class="node">
<title>versions</title>
<polygon fill="none" stroke="black" points="1288.07,-307.12 1288.07,-328.12 1423.07,-328.12 1423.07,-307.12 1288.07,-307.12"/>
<text text-anchor="start" x="1325.07" y="-313.92" font-family="Times,serif" font-size="14.00">versions</text>
<polygon fill="none" stroke="black" points="1288.07,-286.12 1288.07,-307.12 1347.07,-307.12 1347.07,-286.12 1288.07,-286.12"/>
<text text-anchor="start" x="1291.07" y="-292.92" font-family="Times,serif" font-size="14.00">id</text>
<polyline fill="none" stroke="black" points="1347.07,-286.12 1423.07,-286.12 1423.07,-307.12 1347.07,-307.12 "/>
<text text-anchor="start" x="1350.07" y="-292.92" font-family="Times,serif" font-size="14.00">INTEGER</text>
<polygon fill="none" stroke="black" points="1288.07,-265.12 1288.07,-286.12 1347.07,-286.12 1347.07,-265.12 1288.07,-265.12"/>
<text text-anchor="start" x="1291.07" y="-271.92" font-family="Times,serif" font-size="14.00">family</text>
<polyline fill="none" stroke="black" points="1347.07,-265.12 1423.07,-265.12 1423.07,-286.12 1347.07,-286.12 "/>
<text text-anchor="start" x="1350.07" y="-271.92" font-family="Times,serif" font-size="14.00">TEXT</text>
<polygon fill="none" stroke="black" points="1288.07,-244.12 1288.07,-265.12 1347.07,-265.12 1347.07,-244.12 1288.07,-244.12"/>
<text text-anchor="start" x="1291.07" y="-250.92" font-family="Times,serif" font-size="14.00">version</text>
<polyline fill="none" stroke="black" points="1347.07,-244.12 1423.07,-244.12 1423.07,-265.12 1347.07,-265.12 "/>
<text text-anchor="start" x="1350.07" y="-250.92" font-family="Times,serif" font-size="14.00">TEXT</text>
</g>
<!-- language_versions&#45;&gt;versions -->
<g id="edge5" class="edge">
<title>language_versions&#45;&gt;versions</title>
<path fill="none" stroke="black" d="M1224.46,-71.03C1239.64,-95.41 1260.19,-128.54 1278.09,-157.88 1292.71,-181.85 1308.72,-208.45 1322.33,-231.19"/>
<polygon fill="black" stroke="black" points="1319.48,-233.24 1327.61,-240.02 1325.48,-229.64 1319.48,-233.24"/>
<text text-anchor="middle" x="1241.61" y="-146.71" font-family="Times,serif" font-size="14.00">version_id</text>
</g>
<!-- languages -->
<g id="node8" class="node">
<title>languages</title>
<polygon fill="none" stroke="black" points="893.93,-103.39 893.93,-124.39 1015.93,-124.39 1015.93,-103.39 893.93,-103.39"/>
<text text-anchor="start" x="918.43" y="-110.19" font-family="Times,serif" font-size="14.00">languages</text>
<polygon fill="none" stroke="black" points="893.93,-82.39 893.93,-103.39 939.93,-103.39 939.93,-82.39 893.93,-82.39"/>
<text text-anchor="start" x="896.93" y="-89.19" font-family="Times,serif" font-size="14.00">id</text>
<polyline fill="none" stroke="black" points="939.93,-82.39 1015.93,-82.39 1015.93,-103.39 939.93,-103.39 "/>
<text text-anchor="start" x="942.93" y="-89.19" font-family="Times,serif" font-size="14.00">INTEGER</text>
<polygon fill="none" stroke="black" points="893.93,-61.39 893.93,-82.39 939.93,-82.39 939.93,-61.39 893.93,-61.39"/>
<text text-anchor="start" x="896.93" y="-68.19" font-family="Times,serif" font-size="14.00">name</text>
<polyline fill="none" stroke="black" points="939.93,-61.39 1015.93,-61.39 1015.93,-82.39 939.93,-82.39 "/>
<text text-anchor="start" x="942.93" y="-68.19" font-family="Times,serif" font-size="14.00">TEXT</text>
</g>
<!-- language_versions&#45;&gt;languages -->
<g id="edge6" class="edge">
<title>language_versions&#45;&gt;languages</title>
<path fill="none" stroke="black" d="M1113.67,-56.24C1087.72,-62.31 1059.54,-68.91 1034.21,-74.83"/>
<polygon fill="black" stroke="black" points="1033.23,-71.47 1024.29,-77.16 1034.83,-78.29 1033.23,-71.47"/>
<text text-anchor="middle" x="1069.3" y="-55.42" font-family="Times,serif" font-size="14.00">language_id</text>
</g>
<!-- oracles -->
<g id="node10" class="node">
<title>oracles</title>
<polygon fill="none" stroke="black" points="1144.89,-206.58 1144.89,-227.58 1266.89,-227.58 1266.89,-206.58 1144.89,-206.58"/>
<text text-anchor="start" x="1179.89" y="-213.38" font-family="Times,serif" font-size="14.00">oracles</text>
<polygon fill="none" stroke="black" points="1144.89,-185.58 1144.89,-206.58 1190.89,-206.58 1190.89,-185.58 1144.89,-185.58"/>
<text text-anchor="start" x="1147.89" y="-192.38" font-family="Times,serif" font-size="14.00">id</text>
<polyline fill="none" stroke="black" points="1190.89,-185.58 1266.89,-185.58 1266.89,-206.58 1190.89,-206.58 "/>
<text text-anchor="start" x="1193.89" y="-192.38" font-family="Times,serif" font-size="14.00">INTEGER</text>
<polygon fill="none" stroke="black" points="1144.89,-164.58 1144.89,-185.58 1190.89,-185.58 1190.89,-164.58 1144.89,-164.58"/>
<text text-anchor="start" x="1147.89" y="-171.38" font-family="Times,serif" font-size="14.00">name</text>
<polyline fill="none" stroke="black" points="1190.89,-164.58 1266.89,-164.58 1266.89,-185.58 1190.89,-185.58 "/>
<text text-anchor="start" x="1193.89" y="-171.38" font-family="Times,serif" font-size="14.00">TEXT</text>
</g>
<!-- predictions -->
<g id="node11" class="node">
<title>predictions</title>
<polygon fill="none" stroke="black" points="918.37,-354.96 918.37,-375.96 1121.37,-375.96 1121.37,-354.96 918.37,-354.96"/>
<text text-anchor="start" x="979.37" y="-361.76" font-family="Times,serif" font-size="14.00">predictions</text>
<polygon fill="none" stroke="black" points="918.37,-333.96 918.37,-354.96 1018.37,-354.96 1018.37,-333.96 918.37,-333.96"/>
<text text-anchor="start" x="921.37" y="-340.76" font-family="Times,serif" font-size="14.00">statement_id</text>
<polyline fill="none" stroke="black" points="1018.37,-333.96 1094.37,-333.96 "/>
<polyline fill="none" stroke="black" points="1094.37,-354.96 1018.37,-354.96 "/>
<text text-anchor="start" x="1021.37" y="-340.76" font-family="Times,serif" font-size="14.00">INTEGER</text>
<polyline fill="none" stroke="black" points="1094.37,-333.96 1121.37,-333.96 1121.37,-354.96 1094.37,-354.96 "/>
<text text-anchor="start" x="1097.37" y="-340.76" font-family="Times,serif" font-size="14.00">FK</text>
<polygon fill="none" stroke="black" points="918.37,-312.96 918.37,-333.96 1018.37,-333.96 1018.37,-312.96 918.37,-312.96"/>
<text text-anchor="start" x="921.37" y="-319.76" font-family="Times,serif" font-size="14.00">oracle_id</text>
<polyline fill="none" stroke="black" points="1018.37,-312.96 1094.37,-312.96 "/>
<polyline fill="none" stroke="black" points="1094.37,-333.96 1018.37,-333.96 "/>
<text text-anchor="start" x="1021.37" y="-319.76" font-family="Times,serif" font-size="14.00">INTEGER</text>
<polyline fill="none" stroke="black" points="1094.37,-312.96 1121.37,-312.96 1121.37,-333.96 1094.37,-333.96 "/>
<text text-anchor="start" x="1097.37" y="-319.76" font-family="Times,serif" font-size="14.00">FK</text>
<polygon fill="none" stroke="black" points="918.37,-291.96 918.37,-312.96 1018.37,-312.96 1018.37,-291.96 918.37,-291.96"/>
<text text-anchor="start" x="921.37" y="-298.76" font-family="Times,serif" font-size="14.00">language_id</text>
<polyline fill="none" stroke="black" points="1018.37,-291.96 1094.37,-291.96 "/>
<polyline fill="none" stroke="black" points="1094.37,-312.96 1018.37,-312.96 "/>
<text text-anchor="start" x="1021.37" y="-298.76" font-family="Times,serif" font-size="14.00">INTEGER</text>
<polyline fill="none" stroke="black" points="1094.37,-291.96 1121.37,-291.96 1121.37,-312.96 1094.37,-312.96 "/>
<text text-anchor="start" x="1097.37" y="-298.76" font-family="Times,serif" font-size="14.00">FK</text>
<polygon fill="none" stroke="black" points="918.37,-270.96 918.37,-291.96 1018.37,-291.96 1018.37,-270.96 918.37,-270.96"/>
<text text-anchor="start" x="921.37" y="-277.76" font-family="Times,serif" font-size="14.00">error</text>
<polyline fill="none" stroke="black" points="1018.37,-270.96 1121.37,-270.96 1121.37,-291.96 1018.37,-291.96 "/>
<text text-anchor="start" x="1021.37" y="-277.76" font-family="Times,serif" font-size="14.00">TEXT</text>
<polygon fill="none" stroke="black" points="918.37,-249.96 918.37,-270.96 1018.37,-270.96 1018.37,-249.96 918.37,-249.96"/>
<text text-anchor="start" x="921.37" y="-256.76" font-family="Times,serif" font-size="14.00">message</text>
<polyline fill="none" stroke="black" points="1018.37,-249.96 1121.37,-249.96 1121.37,-270.96 1018.37,-270.96 "/>
<text text-anchor="start" x="1021.37" y="-256.76" font-family="Times,serif" font-size="14.00">TEXT</text>
<polygon fill="none" stroke="black" points="918.37,-228.96 918.37,-249.96 1018.37,-249.96 1018.37,-228.96 918.37,-228.96"/>
<text text-anchor="start" x="921.37" y="-235.76" font-family="Times,serif" font-size="14.00">valid</text>
<polyline fill="none" stroke="black" points="1018.37,-228.96 1121.37,-228.96 1121.37,-249.96 1018.37,-249.96 "/>
<text text-anchor="start" x="1021.37" y="-235.76" font-family="Times,serif" font-size="14.00">BOOLEAN</text>
</g>
<!-- predictions&#45;&gt;statements -->
<g id="edge9" class="edge">
<title>predictions&#45;&gt;statements</title>
<path fill="none" stroke="black" d="M997.2,-380.71C988.76,-410.31 979.43,-443.05 972.12,-468.7"/>
<polygon fill="black" stroke="black" points="968.7,-467.94 969.32,-478.52 975.43,-469.86 968.7,-467.94"/>
<text text-anchor="middle" x="936.23" y="-433.52" font-family="Times,serif" font-size="14.00">statement_id</text>
</g>
<!-- predictions&#45;&gt;languages -->
<g id="edge7" class="edge">
<title>predictions&#45;&gt;languages</title>
<path fill="none" stroke="black" d="M995.46,-225.22C986.51,-196.12 976.65,-164.03 968.89,-138.8"/>
<polygon fill="black" stroke="black" points="972.2,-137.66 965.92,-129.13 965.51,-139.72 972.2,-137.66"/>
<text text-anchor="middle" x="937.66" y="-180.9" font-family="Times,serif" font-size="14.00">language_id</text>
</g>
<!-- predictions&#45;&gt;oracles -->
<g id="edge8" class="edge">
<title>predictions&#45;&gt;oracles</title>
<path fill="none" stroke="black" d="M1128.94,-240.46C1130.79,-239.41 1132.62,-238.36 1134.45,-237.32"/>
<polygon fill="black" stroke="black" points="1136.5,-240.18 1143.45,-232.19 1133.03,-234.1 1136.5,-240.18"/>
<text text-anchor="middle" x="1166.36" y="-241.17" font-family="Times,serif" font-size="14.00">oracle_id</text>
</g>
<!-- schema_version -->
<g id="node12" class="node">
<title>schema_version</title>
<polygon fill="none" stroke="black" points="498,-437.5 498,-458.5 618,-458.5 618,-437.5 498,-437.5"/>
<text text-anchor="start" x="501" y="-444.3" font-family="Times,serif" font-size="14.00">schema_version</text>
<polygon fill="none" stroke="black" points="498,-416.5 498,-437.5 561,-437.5 561,-416.5 498,-416.5"/>
<text text-anchor="start" x="501" y="-423.3" font-family="Times,serif" font-size="14.00">major</text>
<polyline fill="none" stroke="black" points="561,-416.5 618,-416.5 618,-437.5 561,-437.5 "/>
<text text-anchor="start" x="564" y="-423.3" font-family="Times,serif" font-size="14.00">INT4</text>
<polygon fill="none" stroke="black" points="498,-395.5 498,-416.5 561,-416.5 561,-395.5 498,-395.5"/>
<text text-anchor="start" x="501" y="-402.3" font-family="Times,serif" font-size="14.00">minor</text>
<polyline fill="none" stroke="black" points="561,-395.5 618,-395.5 618,-416.5 561,-416.5 "/>
<text text-anchor="start" x="564" y="-402.3" font-family="Times,serif" font-size="14.00">INT4</text>
</g>
<!-- statement_fingerprints -->
<g id="node13" class="node">
<title>statement_fingerprints</title>
<polygon fill="none" stroke="black" points="975.8,-734.08 975.8,-755.08 1178.8,-755.08 1178.8,-734.08 975.8,-734.08"/>
<text text-anchor="start" x="994.8" y="-740.88" font-family="Times,serif" font-size="14.00">statement_fingerprints</text>
<polygon fill="none" stroke="black" points="975.8,-713.08 975.8,-734.08 1075.8,-734.08 1075.8,-713.08 975.8,-713.08"/>
<text text-anchor="start" x="978.8" y="-719.88" font-family="Times,serif" font-size="14.00">fingerprint</text>
<polyline fill="none" stroke="black" points="1075.8,-713.08 1178.8,-713.08 1178.8,-734.08 1075.8,-734.08 "/>
<text text-anchor="start" x="1078.8" y="-719.88" font-family="Times,serif" font-size="14.00">INTEGER</text>
<polygon fill="none" stroke="black" points="975.8,-692.08 975.8,-713.08 1075.8,-713.08 1075.8,-692.08 975.8,-692.08"/>
<text text-anchor="start" x="978.8" y="-698.88" font-family="Times,serif" font-size="14.00">statement_id</text>
<polyline fill="none" stroke="black" points="1075.8,-692.08 1151.8,-692.08 "/>
<polyline fill="none" stroke="black" points="1151.8,-713.08 1075.8,-713.08 "/>
<text text-anchor="start" x="1078.8" y="-698.88" font-family="Times,serif" font-size="14.00">INTEGER</text>
<polyline fill="none" stroke="black" points="1151.8,-692.08 1178.8,-692.08 1178.8,-713.08 1151.8,-713.08 "/>
<text text-anchor="start" x="1154.8" y="-698.88" font-family="Times,serif" font-size="14.00">FK</text>
</g>
<!-- statement_fingerprints&#45;&gt;statements -->
<g id="edge10" class="edge">
<title>statement_fingerprints&#45;&gt;statements</title>
<path fill="none" stroke="black" d="M1056.85,-688.47C1036.82,-652.74 1005.91,-597.6 984.23,-558.93"/>
<polygon fill="black" stroke="black" points="987.15,-556.98 979.21,-549.97 981.04,-560.41 987.15,-556.98"/>
<text text-anchor="middle" x="971.12" y="-623.19" font-family="Times,serif" font-size="14.00">statement_id</text>
</g>
<!-- statement_languages -->
<g id="node14" class="node">
<title>statement_languages</title>
<polygon fill="none" stroke="black" points="725.29,-306.33 725.29,-327.33 894.29,-327.33 894.29,-306.33 725.29,-306.33"/>
<text text-anchor="start" x="733.29" y="-313.13" font-family="Times,serif" font-size="14.00">statement_languages</text>
<polygon fill="none" stroke="black" points="725.29,-285.33 725.29,-306.33 825.29,-306.33 825.29,-285.33 725.29,-285.33"/>
<text text-anchor="start" x="728.29" y="-292.13" font-family="Times,serif" font-size="14.00">statement_id</text>
<polyline fill="none" stroke="black" points="825.29,-285.33 867.29,-285.33 "/>
<polyline fill="none" stroke="black" points="867.29,-306.33 825.29,-306.33 "/>
<text text-anchor="start" x="828.29" y="-292.13" font-family="Times,serif" font-size="14.00">INT8</text>
<polyline fill="none" stroke="black" points="867.29,-285.33 894.29,-285.33 894.29,-306.33 867.29,-306.33 "/>
<text text-anchor="start" x="870.29" y="-292.13" font-family="Times,serif" font-size="14.00">FK</text>
<polygon fill="none" stroke="black" points="725.29,-264.33 725.29,-285.33 825.29,-285.33 825.29,-264.33 725.29,-264.33"/>
<text text-anchor="start" x="728.29" y="-271.13" font-family="Times,serif" font-size="14.00">language_id</text>
<polyline fill="none" stroke="black" points="825.29,-264.33 867.29,-264.33 "/>
<polyline fill="none" stroke="black" points="867.29,-285.33 825.29,-285.33 "/>
<text text-anchor="start" x="828.29" y="-271.13" font-family="Times,serif" font-size="14.00">INT4</text>
<polyline fill="none" stroke="black" points="867.29,-264.33 894.29,-264.33 894.29,-285.33 867.29,-285.33 "/>
<text text-anchor="start" x="870.29" y="-271.13" font-family="Times,serif" font-size="14.00">FK</text>
</g>
<!-- statement_languages&#45;&gt;statements -->
<g id="edge12" class="edge">
<title>statement_languages&#45;&gt;statements</title>
<path fill="none" stroke="black" d="M834.03,-332.3C860.03,-370.1 900.96,-429.59 928.87,-470.17"/>
<polygon fill="black" stroke="black" points="926.07,-472.27 934.62,-478.52 931.83,-468.3 926.07,-472.27"/>
<text text-anchor="middle" x="837.32" y="-409.2" font-family="Times,serif" font-size="14.00">statement_id</text>
</g>
<!-- statement_languages&#45;&gt;languages -->
<g id="edge11" class="edge">
<title>statement_languages&#45;&gt;languages</title>
<path fill="none" stroke="black" d="M834.99,-260.51C859.56,-226.28 896.67,-174.57 923.1,-137.74"/>
<polygon fill="black" stroke="black" points="926.25,-139.35 929.24,-129.19 920.56,-135.27 926.25,-139.35"/>
<text text-anchor="middle" x="839.02" y="-198.78" font-family="Times,serif" font-size="14.00">language_id</text>
</g>
<!-- statement_versions -->
<g id="node15" class="node">
<title>statement_versions</title>
<polygon fill="none" stroke="black" points="1124.57,-505.05 1124.57,-526.05 1293.57,-526.05 1293.57,-505.05 1124.57,-505.05"/>
<text text-anchor="start" x="1139.07" y="-511.85" font-family="Times,serif" font-size="14.00">statement_versions</text>
<polygon fill="none" stroke="black" points="1124.57,-484.05 1124.57,-505.05 1224.57,-505.05 1224.57,-484.05 1124.57,-484.05"/>
<text text-anchor="start" x="1127.57" y="-490.85" font-family="Times,serif" font-size="14.00">statement_id</text>
<polyline fill="none" stroke="black" points="1224.57,-484.05 1266.57,-484.05 "/>
<polyline fill="none" stroke="black" points="1266.57,-505.05 1224.57,-505.05 "/>
<text text-anchor="start" x="1227.57" y="-490.85" font-family="Times,serif" font-size="14.00">INT8</text>
<polyline fill="none" stroke="black" points="1266.57,-484.05 1293.57,-484.05 1293.57,-505.05 1266.57,-505.05 "/>
<text text-anchor="start" x="1269.57" y="-490.85" font-family="Times,serif" font-size="14.00">FK</text>
<polygon fill="none" stroke="black" points="1124.57,-463.05 1124.57,-484.05 1224.57,-484.05 1224.57,-463.05 1124.57,-463.05"/>
<text text-anchor="start" x="1127.57" y="-469.85" font-family="Times,serif" font-size="14.00">version_id</text>
<polyline fill="none" stroke="black" points="1224.57,-463.05 1266.57,-463.05 "/>
<polyline fill="none" stroke="black" points="1266.57,-484.05 1224.57,-484.05 "/>
<text text-anchor="start" x="1227.57" y="-469.85" font-family="Times,serif" font-size="14.00">INT8</text>
<polyline fill="none" stroke="black" points="1266.57,-463.05 1293.57,-463.05 1293.57,-484.05 1266.57,-484.05 "/>
<text text-anchor="start" x="1269.57" y="-469.85" font-family="Times,serif" font-size="14.00">FK</text>
</g>
<!-- statement_versions&#45;&gt;statements -->
<g id="edge14" class="edge">
<title>statement_versions&#45;&gt;statements</title>
<path fill="none" stroke="black" d="M1116.05,-502.15C1088.64,-504.25 1058.99,-506.53 1032.93,-508.53"/>
<polygon fill="black" stroke="black" points="1032.46,-505.05 1022.76,-509.31 1032.99,-512.03 1032.46,-505.05"/>
<text text-anchor="middle" x="1069.36" y="-494.53" font-family="Times,serif" font-size="14.00">statement_id</text>
</g>
<!-- statement_versions&#45;&gt;versions -->
<g id="edge13" class="edge">
<title>statement_versions&#45;&gt;versions</title>
<path fill="none" stroke="black" d="M1233.76,-459.13C1256.65,-426.48 1290.76,-377.84 1316.98,-340.44"/>
<polygon fill="black" stroke="black" points="1319.92,-342.35 1322.79,-332.16 1314.18,-338.33 1319.92,-342.35"/>
<text text-anchor="middle" x="1241.75" y="-399.47" font-family="Times,serif" font-size="14.00">version_id</text>
</g>
</g>
</svg>
