<?xml version="1.0" encoding="UTF-8" standalone="no"?>
<!DOCTYPE svg PUBLIC "-//W3C//DTD SVG 1.1//EN"
 "http://www.w3.org/Graphics/SVG/1.1/DTD/svg11.dtd">
<!-- Generated by graphviz version 2.43.0 (0)
 -->
<!-- Title: erd Pages: 1 -->
<svg width="1446pt" height="1142pt"
 viewBox="0.00 0.00 1446.47 1142.50" xmlns="http://www.w3.org/2000/svg" xmlns:xlink="http://www.w3.org/1999/xlink">
<g id="graph0" class="graph" transform="scale(1 1) rotate(0) translate(4 1138.5)">
<title>erd</title>
<polygon fill="white" stroke="transparent" points="-4,4 -4,-1138.5 1442.47,-1138.5 1442.47,4 -4,4"/>
<!-- document_statements -->
<g id="node1" class="node">
<title>document_statements</title>
<polygon fill="none" stroke="black" points="676.67,-733.84 676.67,-754.84 879.67,-754.84 879.67,-733.84 676.67,-733.84"/>
<text text-anchor="start" x="699.17" y="-740.64" font-family="Times,serif" font-size="14.00">document_statements</text>
<polygon fill="none" stroke="black" points="676.67,-712.84 676.67,-733.84 776.67,-733.84 776.67,-712.84 676.67,-712.84"/>
<text text-anchor="start" x="679.67" y="-719.64" font-family="Times,serif" font-size="14.00">document_id</text>
<polyline fill="none" stroke="black" points="776.67,-712.84 852.67,-712.84 "/>
<polyline fill="none" stroke="black" points="852.67,-733.84 776.67,-733.84 "/>
<text text-anchor="start" x="779.67" y="-719.64" font-family="Times,serif" font-size="14.00">INTEGER</text>
<polyline fill="none" stroke="black" points="852.67,-712.84 879.67,-712.84 879.67,-733.84 852.67,-733.84 "/>
<text text-anchor="start" x="855.67" y="-719.64" font-family="Times,serif" font-size="14.00">FK</text>
<polygon fill="none" stroke="black" points="676.67,-691.84 676.67,-712.84 776.67,-712.84 776.67,-691.84 676.67,-691.84"/>
<text text-anchor="start" x="679.67" y="-698.64" font-family="Times,serif" font-size="14.00">statement_id</text>
<polyline fill="none" stroke="black" points="776.67,-691.84 852.67,-691.84 "/>
<polyline fill="none" stroke="black" points="852.67,-712.84 776.67,-712.84 "/>
<text text-anchor="start" x="779.67" y="-698.64" font-family="Times,serif" font-size="14.00">INTEGER</text>
<polyline fill="none" stroke="black" points="852.67,-691.84 879.67,-691.84 879.67,-712.84 852.67,-712.84 "/>
<text text-anchor="start" x="855.67" y="-698.64" font-family="Times,serif" font-size="14.00">FK</text>
<polygon fill="none" stroke="black" points="676.67,-670.84 676.67,-691.84 776.67,-691.84 776.67,-670.84 676.67,-670.84"/>
<text text-anchor="start" x="679.67" y="-677.64" font-family="Times,serif" font-size="14.00">start_line</text>
<polyline fill="none" stroke="black" points="776.67,-670.84 879.67,-670.84 879.67,-691.84 776.67,-691.84 "/>
<text text-anchor="start" x="779.67" y="-677.64" font-family="Times,serif" font-size="14.00">INTEGER</text>
<polygon fill="none" stroke="black" points="676.67,-649.84 676.67,-670.84 776.67,-670.84 776.67,-649.84 676.67,-649.84"/>
<text text-anchor="start" x="679.67" y="-656.64" font-family="Times,serif" font-size="14.00">start_offset</text>
<polyline fill="none" stroke="black" points="776.67,-649.84 879.67,-649.84 879.67,-670.84 776.67,-670.84 "/>
<text text-anchor="start" x="779.67" y="-656.64" font-family="Times,serif" font-size="14.00">INTEGER</text>
<polygon fill="none" stroke="black" points="676.67,-628.84 676.67,-649.84 776.67,-649.84 776.67,-628.84 676.67,-628.84"/>
<text text-anchor="start" x="679.67" y="-635.64" font-family="Times,serif" font-size="14.00">end_line</text>
<polyline fill="none" stroke="black" points="776.67,-628.84 879.67,-628.84 879.67,-649.84 776.67,-649.84 "/>
<text text-anchor="start" x="779.67" y="-635.64" font-family="Times,serif" font-size="14.00">INTEGER</text>
<polygon fill="none" stroke="black" points="676.67,-607.84 676.67,-628.84 776.67,-628.84 776.67,-607.84 676.67,-607.84"/>
<text text-anchor="start" x="679.67" y="-614.64" font-family="Times,serif" font-size="14.00">end_offset</text>
<polyline fill="none" stroke="black" points="776.67,-607.84 879.67,-607.84 879.67,-628.84 776.67,-628.84 "/>
<text text-anchor="start" x="779.67" y="-614.64" font-family="Times,serif" font-size="14.00">INTEGER</text>
<polygon fill="none" stroke="black" points="676.67,-586.84 676.67,-607.84 776.67,-607.84 776.67,-586.84 676.67,-586.84"/>
<text text-anchor="start" x="679.67" y="-593.64" font-family="Times,serif" font-size="14.00">locator</text>
<polyline fill="none" stroke="black" points="776.67,-586.84 879.67,-586.84 879.67,-607.84 776.67,-607.84 "/>
<text text-anchor="start" x="779.67" y="-593.64" font-family="Times,serif" font-size="14.00">TEXT</text>
</g>
<!-- statements -->
<g id="node2" class="node">
<title>statements</title>
<polygon fill="none" stroke="black" points="912.05,-546.62 912.05,-567.62 1023.05,-567.62 1023.05,-546.62 912.05,-546.62"/>
<text text-anchor="start" x="927.05" y="-553.42" font-family="Times,serif" font-size="14.00">statements</text>
<polygon fill="none" stroke="black" points="912.05,-525.62 912.05,-546.62 947.05,-546.62 947.05,-525.62 912.05,-525.62"/>
<text text-anchor="start" x="915.05" y="-532.42" font-family="Times,serif" font-size="14.00">id</text>
<polyline fill="none" stroke="black" points="947.05,-525.62 1023.05,-525.62 1023.05,-546.62 947.05,-546.62 "/>
<text text-anchor="start" x="950.05" y="-532.42" font-family="Times,serif" font-size="14.00">INTEGER</text>
<polygon fill="none" stroke="black" points="912.05,-504.62 912.05,-525.62 947.05,-525.62 947.05,-504.62 912.05,-504.62"/>
<text text-anchor="start" x="915.05" y="-511.42" font-family="Times,serif" font-size="14.00">text</text>
<polyline fill="none" stroke="black" points="947.05,-504.62 1023.05,-504.62 1023.05,-525.62 947.05,-525.62 "/>
<text text-anchor="start" x="950.05" y="-511.42" font-family="Times,serif" font-size="14.00">TEXT</text>
</g>
<!-- document_statements&#45;&gt;statements -->
<g id="edge1" class="edge">
<title>document_statements:statement_id&#45;&gt;statements:id</title>
<path fill="none" stroke="black" d="M676.63,-702.75C676.63,-702.75 647.91,-741.3 664.97,-762.04 696.78,-800.73 854.02,-796.5 890.37,-762.04 950.68,-704.87 886.38,-657.25 900.35,-575.32 902.13,-564.85 905.73,-553.22 908.45,-545.27"/>
<polygon fill="black" stroke="black" points="911.83,-546.23 911.95,-535.63 905.25,-543.84 911.83,-546.23"/>
</g>
<!-- documents -->
<g id="node3" class="node">
<title>documents</title>
<polygon fill="none" stroke="black" points="558.72,-804.1 558.72,-825.1 654.72,-825.1 654.72,-804.1 558.72,-804.1"/>
<text text-anchor="start" x="567.22" y="-810.9" font-family="Times,serif" font-size="14.00">documents</text>
<polygon fill="none" stroke="black" points="558.72,-783.1 558.72,-804.1 578.72,-804.1 578.72,-783.1 558.72,-783.1"/>
<text text-anchor="start" x="561.72" y="-789.9" font-family="Times,serif" font-size="14.00">id</text>
<polyline fill="none" stroke="black" points="578.72,-783.1 654.72,-783.1 654.72,-804.1 578.72,-804.1 "/>
<text text-anchor="start" x="581.72" y="-789.9" font-family="Times,serif" font-size="14.00">INTEGER</text>
</g>
<!-- document_statements&#45;&gt;documents -->
<g id="edge2" class="edge">
<title>document_statements:document_id&#45;&gt;documents:id</title>
<path fill="none" stroke="black" d="M676.67,-723.84C676.67,-723.84 603.34,-764.1 577.56,-778.25"/>
<polygon fill="black" stroke="black" points="575.81,-775.22 568.72,-783.1 579.17,-781.35 575.81,-775.22"/>
</g>
<!-- document_urls -->
<g id="node4" class="node">
<title>document_urls</title>
<polygon fill="none" stroke="black" points="326.49,-923.55 326.49,-944.55 526.49,-944.55 526.49,-923.55 326.49,-923.55"/>
<text text-anchor="start" x="373.49" y="-930.35" font-family="Times,serif" font-size="14.00">document_urls</text>
<polygon fill="none" stroke="black" points="326.49,-902.55 326.49,-923.55 423.49,-923.55 423.49,-902.55 326.49,-902.55"/>
<text text-anchor="start" x="329.49" y="-909.35" font-family="Times,serif" font-size="14.00">document_id</text>
<polyline fill="none" stroke="black" points="423.49,-902.55 499.49,-902.55 "/>
<polyline fill="none" stroke="black" points="499.49,-923.55 423.49,-923.55 "/>
<text text-anchor="start" x="426.49" y="-909.35" font-family="Times,serif" font-size="14.00">INTEGER</text>
<polyline fill="none" stroke="black" points="499.49,-902.55 526.49,-902.55 526.49,-923.55 499.49,-923.55 "/>
<text text-anchor="start" x="502.49" y="-909.35" font-family="Times,serif" font-size="14.00">FK</text>
<polygon fill="none" stroke="black" points="326.49,-881.55 326.49,-902.55 423.49,-902.55 423.49,-881.55 326.49,-881.55"/>
<text text-anchor="start" x="329.49" y="-888.35" font-family="Times,serif" font-size="14.00">url_id</text>
<polyline fill="none" stroke="black" points="423.49,-881.55 499.49,-881.55 "/>
<polyline fill="none" stroke="black" points="499.49,-902.55 423.49,-902.55 "/>
<text text-anchor="start" x="426.49" y="-888.35" font-family="Times,serif" font-size="14.00">INTEGER</text>
<polyline fill="none" stroke="black" points="499.49,-881.55 526.49,-881.55 526.49,-902.55 499.49,-902.55 "/>
<text text-anchor="start" x="502.49" y="-888.35" font-family="Times,serif" font-size="14.00">FK</text>
</g>
<!-- document_urls&#45;&gt;documents -->
<g id="edge4" class="edge">
<title>document_urls:document_id&#45;&gt;documents:id</title>
<path fill="none" stroke="black" d="M326.39,-912.56C326.39,-912.56 307.22,-890.34 315.29,-874.85 360.71,-787.67 508.49,-790.02 548.6,-792.35"/>
<polygon fill="black" stroke="black" points="548.49,-795.85 558.72,-793.1 549.01,-788.87 548.49,-795.85"/>
</g>
<!-- urls -->
<g id="node5" class="node">
<title>urls</title>
<polygon fill="none" stroke="black" points="174.87,-1047.14 174.87,-1068.14 326.87,-1068.14 326.87,-1047.14 174.87,-1047.14"/>
<text text-anchor="start" x="236.87" y="-1053.94" font-family="Times,serif" font-size="14.00">urls</text>
<polygon fill="none" stroke="black" points="174.87,-1026.14 174.87,-1047.14 250.87,-1047.14 250.87,-1026.14 174.87,-1026.14"/>
<text text-anchor="start" x="177.87" y="-1032.94" font-family="Times,serif" font-size="14.00">id</text>
<polyline fill="none" stroke="black" points="250.87,-1026.14 326.87,-1026.14 326.87,-1047.14 250.87,-1047.14 "/>
<text text-anchor="start" x="253.87" y="-1032.94" font-family="Times,serif" font-size="14.00">INTEGER</text>
<polygon fill="none" stroke="black" points="174.87,-1005.14 174.87,-1026.14 250.87,-1026.14 250.87,-1005.14 174.87,-1005.14"/>
<text text-anchor="start" x="177.87" y="-1011.94" font-family="Times,serif" font-size="14.00">url</text>
<polyline fill="none" stroke="black" points="250.87,-1005.14 326.87,-1005.14 326.87,-1026.14 250.87,-1026.14 "/>
<text text-anchor="start" x="253.87" y="-1011.94" font-family="Times,serif" font-size="14.00">TEXT</text>
<polygon fill="none" stroke="black" points="174.87,-984.14 174.87,-1005.14 250.87,-1005.14 250.87,-984.14 174.87,-984.14"/>
<text text-anchor="start" x="177.87" y="-990.94" font-family="Times,serif" font-size="14.00">license_id</text>
<polyline fill="none" stroke="black" points="250.87,-984.14 297.87,-984.14 "/>
<polyline fill="none" stroke="black" points="297.87,-1005.14 250.87,-1005.14 "/>
<text text-anchor="start" x="253.87" y="-990.94" font-family="Times,serif" font-size="14.00">TEXT</text>
<polyline fill="none" stroke="black" points="297.87,-984.14 326.87,-984.14 326.87,-1005.14 297.87,-1005.14 "/>
<text text-anchor="start" x="300.87" y="-990.94" font-family="Times,serif" font-size="14.00">FK</text>
</g>
<!-- document_urls&#45;&gt;urls -->
<g id="edge3" class="edge">
<title>document_urls:url_id&#45;&gt;urls:id</title>
<path fill="none" stroke="black" d="M326.49,-891.55C326.49,-891.55 199.38,-903.45 163.67,-976.94 155.5,-993.75 163.82,-1015.87 169.82,-1028.05"/>
<polygon fill="black" stroke="black" points="166.9,-1030.01 174.8,-1037.07 173.03,-1026.63 166.9,-1030.01"/>
</g>
<!-- licenses -->
<g id="node9" class="node">
<title>licenses</title>
<polygon fill="none" stroke="black" points="15.9,-1109 15.9,-1130 95.9,-1130 95.9,-1109 15.9,-1109"/>
<text text-anchor="start" x="26.9" y="-1115.8" font-family="Times,serif" font-size="14.00">licenses</text>
<polygon fill="none" stroke="black" points="15.9,-1088 15.9,-1109 50.9,-1109 50.9,-1088 15.9,-1088"/>
<text text-anchor="start" x="18.9" y="-1094.8" font-family="Times,serif" font-size="14.00">id</text>
<polyline fill="none" stroke="black" points="50.9,-1088 95.9,-1088 95.9,-1109 50.9,-1109 "/>
<text text-anchor="start" x="53.9" y="-1094.8" font-family="Times,serif" font-size="14.00">TEXT</text>
<polygon fill="none" stroke="black" points="15.9,-1067 15.9,-1088 50.9,-1088 50.9,-1067 15.9,-1067"/>
<text text-anchor="start" x="18.9" y="-1073.8" font-family="Times,serif" font-size="14.00">text</text>
<polyline fill="none" stroke="black" points="50.9,-1067 95.9,-1067 95.9,-1088 50.9,-1088 "/>
<text text-anchor="start" x="53.9" y="-1073.8" font-family="Times,serif" font-size="14.00">TEXT</text>
</g>
<!-- urls&#45;&gt;licenses -->
<g id="edge15" class="edge">
<title>urls:license_id&#45;&gt;licenses:id</title>
<path fill="none" stroke="black" d="M174.87,-994.14C174.87,-994.14 40.49,-987.47 4.7,-1060.3 0,-1069.85 5.15,-1081.76 9.89,-1089.61"/>
<polygon fill="black" stroke="black" points="7.18,-1091.84 15.8,-1098.01 12.9,-1087.81 7.18,-1091.84"/>
</g>
<!-- language_versions -->
<g id="node6" class="node">
<title>language_versions</title>
<polygon fill="none" stroke="black" points="1130.16,-67.93 1130.16,-88.93 1291.16,-88.93 1291.16,-67.93 1130.16,-67.93"/>
<text text-anchor="start" x="1144.16" y="-74.73" font-family="Times,serif" font-size="14.00">language_versions</text>
<polygon fill="none" stroke="black" points="1130.16,-46.93 1130.16,-67.93 1222.16,-67.93 1222.16,-46.93 1130.16,-46.93"/>
<text text-anchor="start" x="1133.16" y="-53.73" font-family="Times,serif" font-size="14.00">language_id</text>
<polyline fill="none" stroke="black" points="1222.16,-46.93 1264.16,-46.93 "/>
<polyline fill="none" stroke="black" points="1264.16,-67.93 1222.16,-67.93 "/>
<text text-anchor="start" x="1225.16" y="-53.73" font-family="Times,serif" font-size="14.00">INT4</text>
<polyline fill="none" stroke="black" points="1264.16,-46.93 1291.16,-46.93 1291.16,-67.93 1264.16,-67.93 "/>
<text text-anchor="start" x="1267.16" y="-53.73" font-family="Times,serif" font-size="14.00">FK</text>
<polygon fill="none" stroke="black" points="1130.16,-25.93 1130.16,-46.93 1222.16,-46.93 1222.16,-25.93 1130.16,-25.93"/>
<text text-anchor="start" x="1133.16" y="-32.73" font-family="Times,serif" font-size="14.00">version_id</text>
<polyline fill="none" stroke="black" points="1222.16,-25.93 1264.16,-25.93 "/>
<polyline fill="none" stroke="black" points="1264.16,-46.93 1222.16,-46.93 "/>
<text text-anchor="start" x="1225.16" y="-32.73" font-family="Times,serif" font-size="14.00">INT4</text>
<polyline fill="none" stroke="black" points="1264.16,-25.93 1291.16,-25.93 1291.16,-46.93 1264.16,-46.93 "/>
<text text-anchor="start" x="1267.16" y="-32.73" font-family="Times,serif" font-size="14.00">FK</text>
</g>
<!-- versions -->
<g id="node7" class="node">
<title>versions</title>
<polygon fill="none" stroke="black" points="1295.97,-329.55 1295.97,-350.55 1430.97,-350.55 1430.97,-329.55 1295.97,-329.55"/>
<text text-anchor="start" x="1332.97" y="-336.35" font-family="Times,serif" font-size="14.00">versions</text>
<polygon fill="none" stroke="black" points="1295.97,-308.55 1295.97,-329.55 1354.97,-329.55 1354.97,-308.55 1295.97,-308.55"/>
<text text-anchor="start" x="1298.97" y="-315.35" font-family="Times,serif" font-size="14.00">id</text>
<polyline fill="none" stroke="black" points="1354.97,-308.55 1430.97,-308.55 1430.97,-329.55 1354.97,-329.55 "/>
<text text-anchor="start" x="1357.97" y="-315.35" font-family="Times,serif" font-size="14.00">INTEGER</text>
<polygon fill="none" stroke="black" points="1295.97,-287.55 1295.97,-308.55 1354.97,-308.55 1354.97,-287.55 1295.97,-287.55"/>
<text text-anchor="start" x="1298.97" y="-294.35" font-family="Times,serif" font-size="14.00">family</text>
<polyline fill="none" stroke="black" points="1354.97,-287.55 1430.97,-287.55 1430.97,-308.55 1354.97,-308.55 "/>
<text text-anchor="start" x="1357.97" y="-294.35" font-family="Times,serif" font-size="14.00">TEXT</text>
<polygon fill="none" stroke="black" points="1295.97,-266.55 1295.97,-287.55 1354.97,-287.55 1354.97,-266.55 1295.97,-266.55"/>
<text text-anchor="start" x="1298.97" y="-273.35" font-family="Times,serif" font-size="14.00">version</text>
<polyline fill="none" stroke="black" points="1354.97,-266.55 1430.97,-266.55 1430.97,-287.55 1354.97,-287.55 "/>
<text text-anchor="start" x="1357.97" y="-273.35" font-family="Times,serif" font-size="14.00">TEXT</text>
</g>
<!-- language_versions&#45;&gt;versions -->
<g id="edge5" class="edge">
<title>language_versions:version_id&#45;&gt;versions:id</title>
<path fill="none" stroke="black" d="M1176.26,-25.91C1176.26,-25.91 1281.58,0 1301.86,-19.23 1326.82,-42.9 1303.55,-62.27 1301.86,-96.63 1298.33,-168.48 1317.44,-193.01 1285.98,-257.71 1285.52,-258.66 1284.59,-258.34 1284.27,-259.35 1278.66,-276.98 1286.05,-298.42 1291.36,-310.35"/>
<polygon fill="black" stroke="black" points="1288.31,-312.08 1295.9,-319.48 1294.58,-308.97 1288.31,-312.08"/>
</g>
<!-- languages -->
<g id="node8" class="node">
<title>languages</title>
<polygon fill="none" stroke="black" points="901.82,-125.82 901.82,-146.82 1023.82,-146.82 1023.82,-125.82 901.82,-125.82"/>
<text text-anchor="start" x="926.32" y="-132.62" font-family="Times,serif" font-size="14.00">languages</text>
<polygon fill="none" stroke="black" points="901.82,-104.82 901.82,-125.82 947.82,-125.82 947.82,-104.82 901.82,-104.82"/>
<text text-anchor="start" x="904.82" y="-111.62" font-family="Times,serif" font-size="14.00">id</text>
<polyline fill="none" stroke="black" points="947.82,-104.82 1023.82,-104.82 1023.82,-125.82 947.82,-125.82 "/>
<text text-anchor="start" x="950.82" y="-111.62" font-family="Times,serif" font-size="14.00">INTEGER</text>
<polygon fill="none" stroke="black" points="901.82,-83.82 901.82,-104.82 947.82,-104.82 947.82,-83.82 901.82,-83.82"/>
<text text-anchor="start" x="904.82" y="-90.62" font-family="Times,serif" font-size="14.00">name</text>
<polyline fill="none" stroke="black" points="947.82,-83.82 1023.82,-83.82 1023.82,-104.82 947.82,-104.82 "/>
<text text-anchor="start" x="950.82" y="-90.62" font-family="Times,serif" font-size="14.00">TEXT</text>
</g>
<!-- language_versions&#45;&gt;languages -->
<g id="edge6" class="edge">
<title>language_versions:language_id&#45;&gt;languages:id</title>
<path fill="none" stroke="black" d="M1130.16,-56.93C1130.16,-56.93 1090.84,-130.99 1035.02,-154.52 975.89,-179.46 929.41,-205.65 890.62,-154.52 883.53,-145.18 890.08,-131.52 895.7,-122.91"/>
<polygon fill="black" stroke="black" points="898.55,-124.94 901.72,-114.83 892.94,-120.76 898.55,-124.94"/>
</g>
<!-- oracles -->
<g id="node10" class="node">
<title>oracles</title>
<polygon fill="none" stroke="black" points="1152.78,-229.01 1152.78,-250.01 1274.78,-250.01 1274.78,-229.01 1152.78,-229.01"/>
<text text-anchor="start" x="1187.78" y="-235.81" font-family="Times,serif" font-size="14.00">oracles</text>
<polygon fill="none" stroke="black" points="1152.78,-208.01 1152.78,-229.01 1198.78,-229.01 1198.78,-208.01 1152.78,-208.01"/>
<text text-anchor="start" x="1155.78" y="-214.81" font-family="Times,serif" font-size="14.00">id</text>
<polyline fill="none" stroke="black" points="1198.78,-208.01 1274.78,-208.01 1274.78,-229.01 1198.78,-229.01 "/>
<text text-anchor="start" x="1201.78" y="-214.81" font-family="Times,serif" font-size="14.00">INTEGER</text>
<polygon fill="none" stroke="black" points="1152.78,-187.01 1152.78,-208.01 1198.78,-208.01 1198.78,-187.01 1152.78,-187.01"/>
<text text-anchor="start" x="1155.78" y="-193.81" font-family="Times,serif" font-size="14.00">name</text>
<polyline fill="none" stroke="black" points="1198.78,-187.01 1274.78,-187.01 1274.78,-208.01 1198.78,-208.01 "/>
<text text-anchor="start" x="1201.78" y="-193.81" font-family="Times,serif" font-size="14.00">TEXT</text>
</g>
<!-- predictions -->
<g id="node11" class="node">
<title>predictions</title>
<polygon fill="none" stroke="black" points="926.26,-377.39 926.26,-398.39 1129.26,-398.39 1129.26,-377.39 926.26,-377.39"/>
<text text-anchor="start" x="987.26" y="-384.19" font-family="Times,serif" font-size="14.00">predictions</text>
<polygon fill="none" stroke="black" points="926.26,-356.39 926.26,-377.39 1026.26,-377.39 1026.26,-356.39 926.26,-356.39"/>
<text text-anchor="start" x="929.26" y="-363.19" font-family="Times,serif" font-size="14.00">statement_id</text>
<polyline fill="none" stroke="black" points="1026.26,-356.39 1102.26,-356.39 "/>
<polyline fill="none" stroke="black" points="1102.26,-377.39 1026.26,-377.39 "/>
<text text-anchor="start" x="1029.26" y="-363.19" font-family="Times,serif" font-size="14.00">INTEGER</text>
<polyline fill="none" stroke="black" points="1102.26,-356.39 1129.26,-356.39 1129.26,-377.39 1102.26,-377.39 "/>
<text text-anchor="start" x="1105.26" y="-363.19" font-family="Times,serif" font-size="14.00">FK</text>
<polygon fill="none" stroke="black" points="926.26,-335.39 926.26,-356.39 1026.26,-356.39 1026.26,-335.39 926.26,-335.39"/>
<text text-anchor="start" x="929.26" y="-342.19" font-family="Times,serif" font-size="14.00">oracle_id</text>
<polyline fill="none" stroke="black" points="1026.26,-335.39 1102.26,-335.39 "/>
<polyline fill="none" stroke="black" points="1102.26,-356.39 1026.26,-356.39 "/>
<text text-anchor="start" x="1029.26" y="-342.19" font-family="Times,serif" font-size="14.00">INTEGER</text>
<polyline fill="none" stroke="black" points="1102.26,-335.39 1129.26,-335.39 1129.26,-356.39 1102.26,-356.39 "/>
<text text-anchor="start" x="1105.26" y="-342.19" font-family="Times,serif" font-size="14.00">FK</text>
<polygon fill="none" stroke="black" points="926.26,-314.39 926.26,-335.39 1026.26,-335.39 1026.26,-314.39 926.26,-314.39"/>
<text text-anchor="start" x="929.26" y="-321.19" font-family="Times,serif" font-size="14.00">language_id</text>
<polyline fill="none" stroke="black" points="1026.26,-314.39 1102.26,-314.39 "/>
<polyline fill="none" stroke="black" points="1102.26,-335.39 1026.26,-335.39 "/>
<text text-anchor="start" x="1029.26" y="-321.19" font-family="Times,serif" font-size="14.00">INTEGER</text>
<polyline fill="none" stroke="black" points="1102.26,-314.39 1129.26,-314.39 1129.26,-335.39 1102.26,-335.39 "/>
<text text-anchor="start" x="1105.26" y="-321.19" font-family="Times,serif" font-size="14.00">FK</text>
<polygon fill="none" stroke="black" points="926.26,-293.39 926.26,-314.39 1026.26,-314.39 1026.26,-293.39 926.26,-293.39"/>
<text text-anchor="start" x="929.26" y="-300.19" font-family="Times,serif" font-size="14.00">error</text>
<polyline fill="none" stroke="black" points="1026.26,-293.39 1129.26,-293.39 1129.26,-314.39 1026.26,-314.39 "/>
<text text-anchor="start" x="1029.26" y="-300.19" font-family="Times,serif" font-size="14.00">TEXT</text>
<polygon fill="none" stroke="black" points="926.26,-272.39 926.26,-293.39 1026.26,-293.39 1026.26,-272.39 926.26,-272.39"/>
<text text-anchor="start" x="929.26" y="-279.19" font-family="Times,serif" font-size="14.00">message</text>
<polyline fill="none" stroke="black" points="1026.26,-272.39 1129.26,-272.39 1129.26,-293.39 1026.26,-293.39 "/>
<text text-anchor="start" x="1029.26" y="-279.19" font-family="Times,serif" font-size="14.00">TEXT</text>
<polygon fill="none" stroke="black" points="926.26,-251.39 926.26,-272.39 1026.26,-272.39 1026.26,-251.39 926.26,-251.39"/>
<text text-anchor="start" x="929.26" y="-258.19" font-family="Times,serif" font-size="14.00">valid</text>
<polyline fill="none" stroke="black" points="1026.26,-251.39 1129.26,-251.39 1129.26,-272.39 1026.26,-272.39 "/>
<text text-anchor="start" x="1029.26" y="-258.19" font-family="Times,serif" font-size="14.00">BOOLEAN</text>
</g>
<!-- predictions&#45;&gt;statements -->
<g id="edge9" class="edge">
<title>predictions:statement_id&#45;&gt;statements:id</title>
<path fill="none" stroke="black" d="M926.24,-367.3C926.24,-367.3 896.06,-438.89 900.35,-497.92 901.07,-507.9 904.74,-518.76 907.76,-526.25"/>
<polygon fill="black" stroke="black" points="904.68,-527.93 911.95,-535.63 911.07,-525.07 904.68,-527.93"/>
</g>
<!-- predictions&#45;&gt;languages -->
<g id="edge7" class="edge">
<title>predictions:language_id&#45;&gt;languages:id</title>
<path fill="none" stroke="black" d="M926.26,-324.39C926.26,-324.39 889.35,-193.07 890.62,-154.52 890.98,-143.8 894.73,-132.01 897.77,-124.1"/>
<polygon fill="black" stroke="black" points="901.02,-125.4 901.72,-114.83 894.58,-122.66 901.02,-125.4"/>
</g>
<!-- predictions&#45;&gt;oracles -->
<g id="edge8" class="edge">
<title>predictions:oracle_id&#45;&gt;oracles:id</title>
<path fill="none" stroke="black" d="M926.21,-346.3C926.21,-346.3 907.48,-253.58 914.56,-244.69 971.47,-173.24 1105.92,-204.7 1143.11,-215.12"/>
<polygon fill="black" stroke="black" points="1142.2,-218.5 1152.78,-218.01 1144.2,-211.8 1142.2,-218.5"/>
</g>
<!-- schema_version -->
<g id="node12" class="node">
<title>schema_version</title>
<polygon fill="none" stroke="black" points="502.9,-441.93 502.9,-462.93 622.9,-462.93 622.9,-441.93 502.9,-441.93"/>
<text text-anchor="start" x="505.9" y="-448.73" font-family="Times,serif" font-size="14.00">schema_version</text>
<polygon fill="none" stroke="black" points="502.9,-420.93 502.9,-441.93 565.9,-441.93 565.9,-420.93 502.9,-420.93"/>
<text text-anchor="start" x="505.9" y="-427.73" font-family="Times,serif" font-size="14.00">major</text>
<polyline fill="none" stroke="black" points="565.9,-420.93 622.9,-420.93 622.9,-441.93 565.9,-441.93 "/>
<text text-anchor="start" x="568.9" y="-427.73" font-family="Times,serif" font-size="14.00">INT4</text>
<polygon fill="none" stroke="black" points="502.9,-399.93 502.9,-420.93 565.9,-420.93 565.9,-399.93 502.9,-399.93"/>
<text text-anchor="start" x="505.9" y="-406.73" font-family="Times,serif" font-size="14.00">minor</text>
<polyline fill="none" stroke="black" points="565.9,-399.93 622.9,-399.93 622.9,-420.93 565.9,-420.93 "/>
<text text-anchor="start" x="568.9" y="-406.73" font-family="Times,serif" font-size="14.00">INT4</text>
</g>
<!-- statement_fingerprints -->
<g id="node13" class="node">
<title>statement_fingerprints</title>
<polygon fill="none" stroke="black" points="983.7,-756.51 983.7,-777.51 1186.7,-777.51 1186.7,-756.51 983.7,-756.51"/>
<text text-anchor="start" x="1002.7" y="-763.31" font-family="Times,serif" font-size="14.00">statement_fingerprints</text>
<polygon fill="none" stroke="black" points="983.7,-735.51 983.7,-756.51 1083.7,-756.51 1083.7,-735.51 983.7,-735.51"/>
<text text-anchor="start" x="986.7" y="-742.31" font-family="Times,serif" font-size="14.00">fingerprint</text>
<polyline fill="none" stroke="black" points="1083.7,-735.51 1186.7,-735.51 1186.7,-756.51 1083.7,-756.51 "/>
<text text-anchor="start" x="1086.7" y="-742.31" font-family="Times,serif" font-size="14.00">INTEGER</text>
<polygon fill="none" stroke="black" points="983.7,-714.51 983.7,-735.51 1083.7,-735.51 1083.7,-714.51 983.7,-714.51"/>
<text text-anchor="start" x="986.7" y="-721.31" font-family="Times,serif" font-size="14.00">statement_id</text>
<polyline fill="none" stroke="black" points="1083.7,-714.51 1159.7,-714.51 "/>
<polyline fill="none" stroke="black" points="1159.7,-735.51 1083.7,-735.51 "/>
<text text-anchor="start" x="1086.7" y="-721.31" font-family="Times,serif" font-size="14.00">INTEGER</text>
<polyline fill="none" stroke="black" points="1159.7,-714.51 1186.7,-714.51 1186.7,-735.51 1159.7,-735.51 "/>
<text text-anchor="start" x="1162.7" y="-721.31" font-family="Times,serif" font-size="14.00">FK</text>
</g>
<!-- statement_fingerprints&#45;&gt;statements -->
<g id="edge10" class="edge">
<title>statement_fingerprints:statement_id&#45;&gt;statements:id</title>
<path fill="none" stroke="black" d="M983.65,-724.6C983.65,-724.6 908.36,-650.88 900.35,-575.32 899.2,-564.47 903.5,-552.51 907.19,-544.59"/>
<polygon fill="black" stroke="black" points="910.35,-546.11 911.95,-535.63 904.17,-542.82 910.35,-546.11"/>
</g>
<!-- statement_languages -->
<g id="node14" class="node">
<title>statement_languages</title>
<polygon fill="none" stroke="black" points="733.18,-328.76 733.18,-349.76 902.18,-349.76 902.18,-328.76 733.18,-328.76"/>
<text text-anchor="start" x="741.18" y="-335.56" font-family="Times,serif" font-size="14.00">statement_languages</text>
<polygon fill="none" stroke="black" points="733.18,-307.76 733.18,-328.76 833.18,-328.76 833.18,-307.76 733.18,-307.76"/>
<text text-anchor="start" x="736.18" y="-314.56" font-family="Times,serif" font-size="14.00">statement_id</text>
<polyline fill="none" stroke="black" points="833.18,-307.76 875.18,-307.76 "/>
<polyline fill="none" stroke="black" points="875.18,-328.76 833.18,-328.76 "/>
<text text-anchor="start" x="836.18" y="-314.56" font-family="Times,serif" font-size="14.00">INT8</text>
<polyline fill="none" stroke="black" points="875.18,-307.76 902.18,-307.76 902.18,-328.76 875.18,-328.76 "/>
<text text-anchor="start" x="878.18" y="-314.56" font-family="Times,serif" font-size="14.00">FK</text>
<polygon fill="none" stroke="black" points="733.18,-286.76 733.18,-307.76 833.18,-307.76 833.18,-286.76 733.18,-286.76"/>
<text text-anchor="start" x="736.18" y="-293.56" font-family="Times,serif" font-size="14.00">language_id</text>
<polyline fill="none" stroke="black" points="833.18,-286.76 875.18,-286.76 "/>
<polyline fill="none" stroke="black" points="875.18,-307.76 833.18,-307.76 "/>
<text text-anchor="start" x="836.18" y="-293.56" font-family="Times,serif" font-size="14.00">INT4</text>
<polyline fill="none" stroke="black" points="875.18,-286.76 902.18,-286.76 902.18,-307.76 875.18,-307.76 "/>
<text text-anchor="start" x="878.18" y="-293.56" font-family="Times,serif" font-size="14.00">FK</text>
</g>
<!-- statement_languages&#45;&gt;statements -->
<g id="edge12" class="edge">
<title>statement_languages:statement_id&#45;&gt;statements:id</title>
<path fill="none" stroke="black" d="M733.08,-317.77C733.08,-317.77 716.63,-339.73 721.48,-357.46 747.68,-453.12 868.52,-515.5 902.9,-531.53"/>
<polygon fill="black" stroke="black" points="901.49,-534.73 912.05,-535.62 904.35,-528.34 901.49,-534.73"/>
</g>
<!-- statement_languages&#45;&gt;languages -->
<g id="edge11" class="edge">
<title>statement_languages:language_id&#45;&gt;languages:id</title>
<path fill="none" stroke="black" d="M783.18,-286.76C783.18,-286.76 872.4,-157.46 896.1,-123.12"/>
<polygon fill="black" stroke="black" points="899.02,-125.04 901.82,-114.82 893.26,-121.07 899.02,-125.04"/>
</g>
<!-- statement_versions -->
<g id="node15" class="node">
<title>statement_versions</title>
<polygon fill="none" stroke="black" points="1132.47,-527.48 1132.47,-548.48 1301.47,-548.48 1301.47,-527.48 1132.47,-527.48"/>
<text text-anchor="start" x="1146.97" y="-534.28" font-family="Times,serif" font-size="14.00">statement_versions</text>
<polygon fill="none" stroke="black" points="1132.47,-506.48 1132.47,-527.48 1232.47,-527.48 1232.47,-506.48 1132.47,-506.48"/>
<text text-anchor="start" x="1135.47" y="-513.28" font-family="Times,serif" font-size="14.00">statement_id</text>
<polyline fill="none" stroke="black" points="1232.47,-506.48 1274.47,-506.48 "/>
<polyline fill="none" stroke="black" points="1274.47,-527.48 1232.47,-527.48 "/>
<text text-anchor="start" x="1235.47" y="-513.28" font-family="Times,serif" font-size="14.00">INT8</text>
<polyline fill="none" stroke="black" points="1274.47,-506.48 1301.47,-506.48 1301.47,-527.48 1274.47,-527.48 "/>
<text text-anchor="start" x="1277.47" y="-513.28" font-family="Times,serif" font-size="14.00">FK</text>
<polygon fill="none" stroke="black" points="1132.47,-485.48 1132.47,-506.48 1232.47,-506.48 1232.47,-485.48 1132.47,-485.48"/>
<text text-anchor="start" x="1135.47" y="-492.28" font-family="Times,serif" font-size="14.00">version_id</text>
<polyline fill="none" stroke="black" points="1232.47,-485.48 1274.47,-485.48 "/>
<polyline fill="none" stroke="black" points="1274.47,-506.48 1232.47,-506.48 "/>
<text text-anchor="start" x="1235.47" y="-492.28" font-family="Times,serif" font-size="14.00">INT8</text>
<polyline fill="none" stroke="black" points="1274.47,-485.48 1301.47,-485.48 1301.47,-506.48 1274.47,-506.48 "/>
<text text-anchor="start" x="1277.47" y="-492.28" font-family="Times,serif" font-size="14.00">FK</text>
</g>
<!-- statement_versions&#45;&gt;statements -->
<g id="edge14" class="edge">
<title>statement_versions:statement_id&#45;&gt;statements:id</title>
<path fill="none" stroke="black" d="M1132.47,-516.48C1132.47,-516.48 1082.99,-561.76 1033.75,-575.32 976.59,-591.07 935.91,-622.76 900.35,-575.32 893.29,-565.9 900.03,-552.26 905.79,-543.68"/>
<polygon fill="black" stroke="black" points="908.65,-545.7 911.95,-535.63 903.09,-541.45 908.65,-545.7"/>
</g>
<!-- statement_versions&#45;&gt;versions -->
<g id="edge13" class="edge">
<title>statement_versions:version_id&#45;&gt;versions:id</title>
<path fill="none" stroke="black" d="M1182.47,-485.48C1182.47,-485.48 1267.06,-361.82 1290.19,-328"/>
<polygon fill="black" stroke="black" points="1293.21,-329.78 1295.97,-319.55 1287.44,-325.83 1293.21,-329.78"/>
</g>
</g>
</svg>
